<svg width="288" height="56" viewBox="0 0 288 56" fill="none" xmlns="http://www.w3.org/2000/svg">
<path d="M23.1335 36.28C23.1335 36.8347 23.1762 37.24 23.2615 37.496C23.3468 37.7307 23.5068 37.8907 23.7415 37.976C23.9975 38.0613 24.4028 38.104 24.9575 38.104H26.0455C27.7095 38.104 29.1495 37.6667 30.3655 36.792C31.5815 35.896 32.3922 34.6907 32.7975 33.176C32.7975 33.1333 32.8402 33.112 32.9255 33.112C32.9682 33.112 33.0108 33.1333 33.0535 33.176C33.1175 33.1973 33.1495 33.2187 33.1495 33.24C32.9575 35.352 32.8615 37.112 32.8615 38.52C32.8615 38.6907 32.8188 38.8187 32.7335 38.904C32.6695 38.968 32.5522 39 32.3815 39H17.2775C17.2348 39 17.2135 38.936 17.2135 38.808C17.2135 38.68 17.2348 38.616 17.2775 38.616C17.9602 38.616 18.4508 38.5627 18.7495 38.456C19.0695 38.3493 19.2828 38.1467 19.3895 37.848C19.5175 37.528 19.5815 37.048 19.5815 36.408V21.592C19.5815 20.952 19.5175 20.4827 19.3895 20.184C19.2828 19.8853 19.0695 19.6827 18.7495 19.576C18.4295 19.448 17.9388 19.384 17.2775 19.384C17.2348 19.384 17.2135 19.32 17.2135 19.192C17.2135 19.064 17.2348 19 17.2775 19L18.9095 19.032C19.8908 19.0747 20.7015 19.096 21.3415 19.096C21.9815 19.096 22.7922 19.0747 23.7735 19.032L25.4055 19C25.4695 19 25.5015 19.064 25.5015 19.192C25.5015 19.32 25.4695 19.384 25.4055 19.384C24.7442 19.384 24.2535 19.448 23.9335 19.576C23.6135 19.6827 23.4002 19.896 23.2935 20.216C23.1868 20.5147 23.1335 20.984 23.1335 21.624V36.28ZM84.703 39.384C82.3563 39.384 80.3083 38.936 78.559 38.04C76.8097 37.144 75.4763 35.928 74.559 34.392C73.6417 32.8347 73.183 31.1067 73.183 29.208C73.183 27.16 73.7057 25.336 74.751 23.736C75.8177 22.1147 77.2683 20.8667 79.103 19.992C80.959 19.096 83.0283 18.648 85.311 18.648C86.3137 18.648 87.327 18.7333 88.351 18.904C89.375 19.0533 90.1963 19.256 90.815 19.512C91.007 19.576 91.1243 19.6613 91.167 19.768C91.231 19.8533 91.2737 20.0133 91.295 20.248L91.711 24.696C91.711 24.76 91.6577 24.8027 91.551 24.824C91.4443 24.8453 91.3697 24.8133 91.327 24.728C90.5803 23.0853 89.5457 21.8053 88.223 20.888C86.9217 19.9707 85.4283 19.512 83.743 19.512C81.567 19.512 79.903 20.2693 78.751 21.784C77.6203 23.2987 77.055 25.368 77.055 27.992C77.055 30.104 77.4177 31.992 78.143 33.656C78.8683 35.2987 79.871 36.5787 81.151 37.496C82.4523 38.392 83.903 38.84 85.503 38.84C86.3777 38.84 87.0497 38.744 87.519 38.552C87.9883 38.36 88.3297 37.9867 88.543 37.432C88.7563 36.8773 88.863 36.056 88.863 34.968C88.863 33.8587 88.799 33.0907 88.671 32.664C88.543 32.216 88.2657 31.9173 87.839 31.768C87.4337 31.6187 86.719 31.544 85.695 31.544C85.567 31.544 85.503 31.4587 85.503 31.288C85.503 31.224 85.5137 31.1707 85.535 31.128C85.5777 31.064 85.6203 31.032 85.663 31.032C87.4763 31.1387 88.9377 31.192 90.047 31.192C91.135 31.192 92.2657 31.16 93.439 31.096C93.4817 31.096 93.5137 31.128 93.535 31.192C93.5777 31.2347 93.599 31.2773 93.599 31.32C93.599 31.4693 93.5457 31.544 93.439 31.544C93.055 31.5227 92.7883 31.5973 92.639 31.768C92.4897 31.9173 92.3937 32.2373 92.351 32.728C92.3083 33.1973 92.287 34.0507 92.287 35.288C92.287 36.248 92.319 36.9307 92.383 37.336C92.4683 37.7413 92.511 37.9973 92.511 38.104C92.511 38.232 92.479 38.3173 92.415 38.36C92.3723 38.4027 92.2763 38.4453 92.127 38.488C89.375 39.0853 86.9003 39.384 84.703 39.384ZM121.879 38.616C121.943 38.616 121.975 38.68 121.975 38.808C121.975 38.936 121.943 39 121.879 39C121.132 39 120.535 38.9893 120.087 38.968L117.623 38.936L114.743 38.968C114.359 38.9893 113.836 39 113.175 39C113.111 39 113.079 38.936 113.079 38.808C113.079 38.68 113.111 38.616 113.175 38.616C113.964 38.616 114.54 38.5627 114.903 38.456C115.266 38.3493 115.511 38.1467 115.639 37.848C115.767 37.5493 115.831 37.0693 115.831 36.408V29.048H105.495V36.408C105.495 37.048 105.559 37.528 105.687 37.848C105.815 38.1467 106.06 38.3493 106.423 38.456C106.786 38.5627 107.362 38.616 108.151 38.616C108.194 38.616 108.215 38.68 108.215 38.808C108.215 38.936 108.194 39 108.151 39C107.404 39 106.807 38.9893 106.359 38.968L103.575 38.936L101.175 38.968C100.748 38.9893 100.162 39 99.415 39C99.3723 39 99.351 38.936 99.351 38.808C99.351 38.68 99.3723 38.616 99.415 38.616C100.162 38.616 100.706 38.5627 101.047 38.456C101.388 38.3493 101.623 38.1467 101.751 37.848C101.879 37.528 101.943 37.048 101.943 36.408V21.592C101.943 20.952 101.879 20.4827 101.751 20.184C101.623 19.8853 101.388 19.6827 101.047 19.576C100.727 19.448 100.204 19.384 99.479 19.384C99.415 19.384 99.383 19.32 99.383 19.192C99.383 19.064 99.415 19 99.479 19L101.207 19.032C102.188 19.0747 102.978 19.096 103.575 19.096C104.386 19.096 105.324 19.0747 106.391 19.032L108.151 19C108.194 19 108.215 19.064 108.215 19.192C108.215 19.32 108.194 19.384 108.151 19.384C107.383 19.384 106.818 19.448 106.455 19.576C106.092 19.704 105.836 19.928 105.687 20.248C105.559 20.5467 105.495 21.016 105.495 21.656V28.152H115.831V21.656C115.831 21.016 115.767 20.5467 115.639 20.248C115.511 19.928 115.266 19.704 114.903 19.576C114.54 19.448 113.964 19.384 113.175 19.384C113.111 19.384 113.079 19.32 113.079 19.192C113.079 19.064 113.111 19 113.175 19L114.743 19.032C115.81 19.0747 116.77 19.096 117.623 19.096C118.199 19.096 119.02 19.0747 120.087 19.032L121.879 19C121.943 19 121.975 19.064 121.975 19.192C121.975 19.32 121.943 19.384 121.879 19.384C121.154 19.384 120.61 19.448 120.247 19.576C119.906 19.6827 119.671 19.8853 119.543 20.184C119.436 20.4827 119.383 20.952 119.383 21.592V36.408C119.383 37.048 119.436 37.528 119.543 37.848C119.671 38.1467 119.906 38.3493 120.247 38.456C120.588 38.5627 121.132 38.616 121.879 38.616ZM133.836 19.736C131.298 19.736 129.474 21.3893 128.364 24.696C128.343 24.76 128.279 24.792 128.172 24.792C128.066 24.7707 128.012 24.728 128.012 24.664C128.098 23.8107 128.194 22.712 128.3 21.368C128.407 20.0027 128.46 18.9787 128.46 18.296C128.46 18.1893 128.514 18.136 128.62 18.136C128.748 18.136 128.812 18.1893 128.812 18.296C128.812 18.7653 129.42 19 130.636 19C132.471 19.064 134.615 19.096 137.068 19.096C138.327 19.096 139.66 19.0747 141.068 19.032L143.244 19C144.055 19 144.642 18.9467 145.004 18.84C145.388 18.7333 145.634 18.52 145.74 18.2C145.762 18.1147 145.826 18.072 145.932 18.072C146.06 18.072 146.124 18.1147 146.124 18.2C146.06 18.84 145.986 19.864 145.9 21.272C145.836 22.68 145.804 23.8107 145.804 24.664C145.804 24.728 145.751 24.76 145.644 24.76C145.538 24.76 145.474 24.728 145.452 24.664C145.132 23.0213 144.535 21.7947 143.66 20.984C142.786 20.152 141.708 19.736 140.428 19.736C139.81 19.736 139.394 19.8747 139.18 20.152C138.988 20.408 138.892 20.9093 138.892 21.656V36.408C138.892 37.0693 138.956 37.5493 139.084 37.848C139.212 38.1467 139.458 38.3493 139.82 38.456C140.183 38.5627 140.759 38.616 141.548 38.616C141.612 38.616 141.644 38.68 141.644 38.808C141.644 38.936 141.612 39 141.548 39C140.78 39 140.172 38.9893 139.724 38.968L137.068 38.936L134.476 38.968C134.028 38.9893 133.41 39 132.62 39C132.556 39 132.524 38.936 132.524 38.808C132.524 38.68 132.556 38.616 132.62 38.616C133.388 38.616 133.954 38.5627 134.316 38.456C134.7 38.3493 134.956 38.1467 135.084 37.848C135.234 37.528 135.308 37.048 135.308 36.408V21.592C135.308 20.8667 135.212 20.376 135.02 20.12C134.828 19.864 134.434 19.736 133.836 19.736ZM174.559 38.616C174.623 38.616 174.655 38.68 174.655 38.808C174.655 38.936 174.623 39 174.559 39C173.812 39 173.215 38.9893 172.767 38.968L170.303 38.936L167.423 38.968C167.039 38.9893 166.516 39 165.855 39C165.791 39 165.759 38.936 165.759 38.808C165.759 38.68 165.791 38.616 165.855 38.616C166.644 38.616 167.22 38.5627 167.583 38.456C167.946 38.3493 168.191 38.1467 168.319 37.848C168.447 37.5493 168.511 37.0693 168.511 36.408V29.048H158.175V36.408C158.175 37.048 158.239 37.528 158.367 37.848C158.495 38.1467 158.74 38.3493 159.103 38.456C159.466 38.5627 160.042 38.616 160.831 38.616C160.874 38.616 160.895 38.68 160.895 38.808C160.895 38.936 160.874 39 160.831 39C160.084 39 159.487 38.9893 159.039 38.968L156.255 38.936L153.855 38.968C153.428 38.9893 152.842 39 152.095 39C152.052 39 152.031 38.936 152.031 38.808C152.031 38.68 152.052 38.616 152.095 38.616C152.842 38.616 153.386 38.5627 153.727 38.456C154.068 38.3493 154.303 38.1467 154.431 37.848C154.559 37.528 154.623 37.048 154.623 36.408V21.592C154.623 20.952 154.559 20.4827 154.431 20.184C154.303 19.8853 154.068 19.6827 153.727 19.576C153.407 19.448 152.884 19.384 152.159 19.384C152.095 19.384 152.063 19.32 152.063 19.192C152.063 19.064 152.095 19 152.159 19L153.887 19.032C154.868 19.0747 155.658 19.096 156.255 19.096C157.066 19.096 158.004 19.0747 159.071 19.032L160.831 19C160.874 19 160.895 19.064 160.895 19.192C160.895 19.32 160.874 19.384 160.831 19.384C160.063 19.384 159.498 19.448 159.135 19.576C158.772 19.704 158.516 19.928 158.367 20.248C158.239 20.5467 158.175 21.016 158.175 21.656V28.152H168.511V21.656C168.511 21.016 168.447 20.5467 168.319 20.248C168.191 19.928 167.946 19.704 167.583 19.576C167.22 19.448 166.644 19.384 165.855 19.384C165.791 19.384 165.759 19.32 165.759 19.192C165.759 19.064 165.791 19 165.855 19L167.423 19.032C168.49 19.0747 169.45 19.096 170.303 19.096C170.879 19.096 171.7 19.0747 172.767 19.032L174.559 19C174.623 19 174.655 19.064 174.655 19.192C174.655 19.32 174.623 19.384 174.559 19.384C173.834 19.384 173.29 19.448 172.927 19.576C172.586 19.6827 172.351 19.8853 172.223 20.184C172.116 20.4827 172.063 20.952 172.063 21.592V36.408C172.063 37.048 172.116 37.528 172.223 37.848C172.351 38.1467 172.586 38.3493 172.927 38.456C173.268 38.5627 173.812 38.616 174.559 38.616ZM191.125 39.384C189.141 39.384 187.37 38.9253 185.813 38.008C184.277 37.0693 183.082 35.8107 182.229 34.232C181.397 32.632 180.981 30.8933 180.981 29.016C180.981 26.8187 181.535 24.9413 182.645 23.384C183.754 21.8053 185.173 20.6213 186.901 19.832C188.65 19.0427 190.431 18.648 192.245 18.648C194.271 18.648 196.053 19.128 197.589 20.088C199.125 21.0267 200.298 22.2747 201.109 23.832C201.941 25.3893 202.357 27.0427 202.357 28.792C202.357 30.7333 201.845 32.5147 200.821 34.136C199.797 35.7573 198.421 37.0373 196.693 37.976C194.986 38.9147 193.13 39.384 191.125 39.384ZM192.181 38.584C193.375 38.584 194.442 38.2427 195.381 37.56C196.341 36.856 197.087 35.8427 197.621 34.52C198.154 33.176 198.421 31.576 198.421 29.72C198.421 27.7573 198.122 26.008 197.525 24.472C196.927 22.9147 196.063 21.6987 194.933 20.824C193.802 19.9493 192.479 19.512 190.965 19.512C189.023 19.512 187.53 20.248 186.485 21.72C185.439 23.1707 184.917 25.208 184.917 27.832C184.917 29.9013 185.226 31.7573 185.845 33.4C186.485 35.0213 187.349 36.2907 188.437 37.208C189.546 38.1253 190.794 38.584 192.181 38.584ZM226.025 23.096C226.025 21.944 225.758 21.0373 225.225 20.376C224.713 19.7147 223.987 19.384 223.049 19.384C223.006 19.384 222.985 19.32 222.985 19.192C222.985 19.064 223.006 19 223.049 19L224.585 19.032C225.395 19.0747 226.046 19.096 226.537 19.096C226.942 19.096 227.529 19.0747 228.297 19.032L229.769 19C229.811 19 229.833 19.064 229.833 19.192C229.833 19.32 229.811 19.384 229.769 19.384C228.937 19.384 228.286 19.7147 227.817 20.376C227.347 21.0373 227.113 21.944 227.113 23.096V31.992C227.113 33.4853 226.782 34.7973 226.121 35.928C225.459 37.0587 224.521 37.9333 223.305 38.552C222.11 39.1493 220.723 39.448 219.145 39.448C217.566 39.448 216.169 39.1493 214.953 38.552C213.737 37.9547 212.777 37.0907 212.073 35.96C211.39 34.808 211.049 33.464 211.049 31.928V21.592C211.049 20.952 210.985 20.4827 210.857 20.184C210.75 19.8853 210.537 19.6827 210.217 19.576C209.918 19.448 209.438 19.384 208.777 19.384C208.713 19.384 208.681 19.32 208.681 19.192C208.681 19.064 208.713 19 208.777 19L210.473 19.032C211.454 19.0747 212.233 19.096 212.809 19.096C213.449 19.096 214.259 19.0747 215.241 19.032L216.873 19C216.937 19 216.969 19.064 216.969 19.192C216.969 19.32 216.937 19.384 216.873 19.384C216.211 19.384 215.721 19.448 215.401 19.576C215.102 19.704 214.889 19.928 214.761 20.248C214.654 20.5467 214.601 21.016 214.601 21.656V30.808C214.601 33.3467 215.102 35.224 216.105 36.44C217.107 37.656 218.526 38.264 220.361 38.264C222.131 38.264 223.518 37.7307 224.521 36.664C225.523 35.576 226.025 34.0293 226.025 32.024V23.096ZM239.285 22.232C239.285 23 239.477 23.6827 239.861 24.28C240.267 24.8773 240.757 25.4 241.333 25.848C241.909 26.296 242.688 26.84 243.669 27.48C244.736 28.1627 245.589 28.76 246.229 29.272C246.869 29.784 247.413 30.4133 247.861 31.16C248.309 31.8853 248.533 32.728 248.533 33.688C248.533 34.7973 248.235 35.7893 247.637 36.664C247.04 37.5173 246.208 38.1893 245.141 38.68C244.096 39.1493 242.923 39.384 241.621 39.384C240.661 39.384 239.659 39.256 238.613 39C237.568 38.7227 236.864 38.424 236.501 38.104C236.395 38.0187 236.309 37.944 236.245 37.88C236.203 37.7947 236.181 37.6667 236.181 37.496L236.085 32.408V32.376C236.085 32.2907 236.139 32.248 236.245 32.248C236.352 32.2267 236.416 32.2587 236.437 32.344C237.077 33.6453 237.632 34.7013 238.101 35.512C238.592 36.3227 239.2 37.0373 239.925 37.656C240.672 38.2747 241.515 38.584 242.453 38.584C243.307 38.584 244.011 38.36 244.565 37.912C245.12 37.4427 245.397 36.6533 245.397 35.544C245.397 34.6053 245.184 33.784 244.757 33.08C244.352 32.376 243.851 31.7787 243.253 31.288C242.656 30.7973 241.835 30.2107 240.789 29.528C239.765 28.8667 238.965 28.3013 238.389 27.832C237.835 27.3627 237.355 26.7973 236.949 26.136C236.544 25.4747 236.341 24.696 236.341 23.8C236.341 22.6693 236.661 21.72 237.301 20.952C237.963 20.1627 238.805 19.5867 239.829 19.224C240.853 18.84 241.931 18.648 243.061 18.648C243.808 18.648 244.565 18.7227 245.333 18.872C246.101 19 246.72 19.16 247.189 19.352C247.381 19.4373 247.509 19.5333 247.573 19.64C247.637 19.7253 247.669 19.8427 247.669 19.992V24.696C247.669 24.76 247.616 24.8133 247.509 24.856C247.403 24.8773 247.339 24.856 247.317 24.792L247.061 24.184C246.528 22.84 245.899 21.6987 245.173 20.76C244.469 19.8213 243.477 19.352 242.197 19.352C241.344 19.352 240.64 19.5973 240.085 20.088C239.552 20.5787 239.285 21.2933 239.285 22.232ZM269.898 33.912C269.898 33.8693 269.941 33.848 270.026 33.848C270.09 33.848 270.144 33.8693 270.186 33.912C270.25 33.9333 270.282 33.9547 270.282 33.976C270.069 35.64 269.962 37.1547 269.962 38.52C269.962 38.6907 269.93 38.8187 269.866 38.904C269.802 38.968 269.674 39 269.482 39H255.338C255.274 39 255.242 38.936 255.242 38.808C255.242 38.68 255.274 38.616 255.338 38.616C256.021 38.616 256.512 38.5627 256.81 38.456C257.13 38.3493 257.344 38.1467 257.45 37.848C257.557 37.528 257.61 37.048 257.61 36.408V21.592C257.61 20.952 257.557 20.4827 257.45 20.184C257.344 19.8853 257.13 19.6827 256.81 19.576C256.49 19.448 256 19.384 255.338 19.384C255.274 19.384 255.242 19.32 255.242 19.192C255.242 19.064 255.274 19 255.338 19H268.906C269.12 19 269.226 19.096 269.226 19.288L269.29 23.544C269.29 23.5867 269.226 23.6187 269.098 23.64C268.992 23.6613 268.928 23.64 268.906 23.576C268.565 22.3387 267.989 21.4213 267.178 20.824C266.368 20.2267 265.301 19.928 263.978 19.928H263.018C262.378 19.928 261.909 20.0667 261.61 20.344C261.312 20.6213 261.162 21.048 261.162 21.624V28.152H263.818C265.056 28.152 266.005 27.9387 266.666 27.512C267.328 27.0853 267.658 26.488 267.658 25.72C267.658 25.656 267.712 25.624 267.818 25.624C267.946 25.624 268.01 25.656 268.01 25.72L267.978 28.6L268.01 30.136C268.053 30.8613 268.074 31.4373 268.074 31.864C268.074 31.9067 268.01 31.928 267.882 31.928C267.754 31.928 267.69 31.9067 267.69 31.864C267.69 30.9893 267.349 30.3067 266.666 29.816C266.005 29.304 265.045 29.048 263.786 29.048H261.162V36.28C261.162 36.8987 261.28 37.3573 261.514 37.656C261.749 37.9547 262.122 38.104 262.634 38.104H263.69C265.354 38.104 266.688 37.7627 267.69 37.08C268.693 36.3973 269.429 35.3413 269.898 33.912Z" fill="white"/>
<path d="M53.9784 -9.44962e-05L66 48L42 48L53.9784 -9.44962e-05Z" fill="url(#paint0_linear_28_501)"/>
<defs>
<linearGradient id="paint0_linear_28_501" x1="54" y1="2.09815e-06" x2="54" y2="48" gradientUnits="userSpaceOnUse">
<stop stop-color="white"/>
<stop offset="1" stop-color="#D9D9D9" stop-opacity="0"/>
</linearGradient>
</defs>
</svg>
